<?xml version="1.0" standalone="no"?>
<!DOCTYPE svg PUBLIC "-//W3C//DTD SVG 20010904//EN"
 "http://www.w3.org/TR/2001/REC-SVG-20010904/DTD/svg10.dtd">
<svg version="1.0" xmlns="http://www.w3.org/2000/svg"
 width="1300.000000pt" height="1390.000000pt" viewBox="0 0 1300.000000 1390.000000"
 preserveAspectRatio="xMidYMid meet">

<g transform="translate(0.000000,1390.000000) scale(0.100000,-0.100000)"
fill="#000000" stroke="none">
<path d="M5040 12434 c-147 -22 -238 -64 -330 -154 -67 -65 -129 -170 -144
-246 -7 -29 -10 -31 -124 -58 -287 -70 -468 -122 -1072 -312 -234 -73 -490
-153 -570 -177 l-145 -45 0 -2109 c0 -2228 -1 -2167 46 -2443 254 -1489 1454
-2656 2954 -2871 83 -11 151 -22 152 -23 1 -1 7 -47 13 -102 26 -234 84 -437
185 -639 262 -530 773 -843 1443 -884 633 -39 1335 193 1933 641 244 183 487
416 652 624 39 51 77 93 83 93 5 1 39 -10 74 -24 107 -42 203 -58 345 -58 233
0 433 68 608 207 115 92 202 199 267 331 123 247 142 498 59 750 -108 324
-355 555 -699 652 -52 14 -100 18 -240 17 -162 0 -182 -2 -265 -28 -359 -109
-596 -362 -694 -740 -26 -99 -28 -267 -5 -386 29 -156 100 -315 191 -428 41
-50 43 -43 -54 -158 -221 -264 -435 -456 -716 -641 -692 -456 -1530 -581
-2091 -313 -388 184 -625 544 -679 1027 -5 41 -4 43 26 47 18 3 84 8 147 11
301 15 676 96 985 212 133 50 387 169 510 240 573 328 1065 844 1369 1434 204
396 324 797 371 1244 13 119 15 448 15 2196 l0 2057 -120 41 c-65 22 -274 98
-462 167 -596 219 -882 316 -1175 396 l-152 41 -16 51 c-49 153 -187 288 -344
337 -79 24 -202 28 -281 9 -268 -64 -445 -331 -400 -601 60 -356 443 -549 766
-386 57 29 145 105 184 158 l26 36 144 -39 c214 -59 595 -187 1035 -348 215
-79 391 -145 393 -145 9 -6 0 -3829 -9 -3918 -33 -326 -112 -628 -243 -931
-253 -586 -709 -1103 -1258 -1428 -669 -395 -1439 -525 -2198 -372 -908 183
-1698 779 -2129 1606 -192 368 -305 757 -341 1173 -6 76 -10 809 -10 2020 l0
1901 408 128 c463 146 762 235 1004 296 l168 42 50 -55 c110 -120 236 -177
398 -179 157 -2 266 43 377 156 108 108 155 223 155 374 0 235 -167 453 -388
506 -66 16 -146 25 -182 20z"/>
<path d="M5780 11220 c-733 -43 -1426 -163 -2142 -370 l-147 -43 3 -326 c2
-335 -2 -487 -29 -1056 -47 -1000 -37 -1517 35 -1925 11 -58 22 -125 25 -150
41 -318 150 -680 293 -978 237 -494 591 -885 1051 -1161 316 -189 623 -298
996 -352 109 -16 454 -16 545 -1 36 6 106 18 155 26 391 63 808 256 1155 532
117 93 330 308 426 429 370 467 586 1058 674 1845 28 247 41 501 47 915 7 564
-12 1177 -62 1935 -8 124 -15 239 -15 256 0 31 -2 32 -85 58 -581 181 -1233
304 -1895 356 -179 14 -847 21 -1030 10z m-270 -1935 l0 -625 645 0 645 0 0
625 0 625 350 0 350 0 0 -1590 0 -1590 -348 0 -349 0 -6 366 c-4 201 -4 487 0
635 l6 269 -646 0 -647 0 0 -635 0 -635 -355 0 -355 0 0 1590 0 1590 355 0
355 0 0 -625z"/>
</g>
</svg>
